<svg width="16" height="16" viewBox="0 0 16 16" fill="none" xmlns="http://www.w3.org/2000/svg">
<path d="M6.16672 14.6666L5.90005 12.5333C5.7556 12.4777 5.61949 12.411 5.49172 12.3333C5.36394 12.2555 5.23894 12.1721 5.11672 12.0833L3.13338 12.9166L1.30005 9.74992L3.01672 8.44992C3.0056 8.37214 3.00005 8.29714 3.00005 8.22492V7.77492C3.00005 7.7027 3.0056 7.6277 3.01672 7.54992L1.30005 6.24992L3.13338 3.08325L5.11672 3.91659C5.23894 3.8277 5.36672 3.74436 5.50005 3.66659C5.63338 3.58881 5.76672 3.52214 5.90005 3.46659L6.16672 1.33325H9.83338L10.1 3.46659C10.2445 3.52214 10.3806 3.58881 10.5084 3.66659C10.6362 3.74436 10.7612 3.8277 10.8834 3.91659L12.8667 3.08325L14.7 6.24992L12.9834 7.54992C12.9945 7.6277 13 7.7027 13 7.77492V8.22492C13 8.29714 12.9889 8.37214 12.9667 8.44992L14.6834 9.74992L12.85 12.9166L10.8834 12.0833C10.7612 12.1721 10.6334 12.2555 10.5 12.3333C10.3667 12.411 10.2334 12.4777 10.1 12.5333L9.83338 14.6666H6.16672ZM8.03338 10.3333C8.67783 10.3333 9.22783 10.1055 9.68338 9.64992C10.1389 9.19436 10.3667 8.64436 10.3667 7.99992C10.3667 7.35547 10.1389 6.80547 9.68338 6.34992C9.22783 5.89436 8.67783 5.66659 8.03338 5.66659C7.37783 5.66659 6.82505 5.89436 6.37505 6.34992C5.92505 6.80547 5.70005 7.35547 5.70005 7.99992C5.70005 8.64436 5.92505 9.19436 6.37505 9.64992C6.82505 10.1055 7.37783 10.3333 8.03338 10.3333Z" fill="#484848"/>
</svg>
